<svg xmlns="http://www.w3.org/2000/svg" width="1000" height="560" viewBox="0 0 1000 560">
<defs><linearGradient id="bg" x2="1" y2="1"><stop stop-color="#11161a"/><stop offset=".55" stop-color="#0b0d0f"/><stop offset="1" stop-color="#090a0b"/></linearGradient><radialGradient id="glow"><stop stop-color="#b88b45" stop-opacity=".22"/><stop offset="1" stop-color="#b88b45" stop-opacity="0"/></radialGradient></defs>
<rect width="1000" height="560" fill="url(#bg)"/><circle cx="500" cy="230" r="250" fill="url(#glow)"/><circle cx="923" cy="44" r="1" fill="#c7b58f" opacity="0.18"/><circle cx="895" cy="73" r="2" fill="#c7b58f" opacity="0.39"/><circle cx="914" cy="108" r="1" fill="#c7b58f" opacity="0.33"/><circle cx="661" cy="39" r="2" fill="#c7b58f" opacity="0.35"/><circle cx="481" cy="193" r="1" fill="#c7b58f" opacity="0.39"/><circle cx="920" cy="160" r="1" fill="#c7b58f" opacity="0.31"/><circle cx="495" cy="158" r="1" fill="#c7b58f" opacity="0.42"/><circle cx="931" cy="37" r="1" fill="#c7b58f" opacity="0.29"/><circle cx="366" cy="127" r="1" fill="#c7b58f" opacity="0.42"/><circle cx="578" cy="72" r="2" fill="#c7b58f" opacity="0.20"/><circle cx="276" cy="36" r="1" fill="#c7b58f" opacity="0.25"/><circle cx="179" cy="160" r="2" fill="#c7b58f" opacity="0.26"/><circle cx="566" cy="202" r="2" fill="#c7b58f" opacity="0.20"/><circle cx="496" cy="136" r="2" fill="#c7b58f" opacity="0.31"/><circle cx="821" cy="123" r="2" fill="#c7b58f" opacity="0.26"/><circle cx="919" cy="144" r="1" fill="#c7b58f" opacity="0.44"/><circle cx="449" cy="213" r="2" fill="#c7b58f" opacity="0.29"/><circle cx="583" cy="93" r="1" fill="#c7b58f" opacity="0.23"/><circle cx="550" cy="158" r="2" fill="#c7b58f" opacity="0.40"/><circle cx="402" cy="199" r="1" fill="#c7b58f" opacity="0.42"/><circle cx="512" cy="119" r="2" fill="#c7b58f" opacity="0.37"/><circle cx="610" cy="215" r="1" fill="#c7b58f" opacity="0.30"/><circle cx="267" cy="113" r="2" fill="#c7b58f" opacity="0.40"/><circle cx="937" cy="187" r="1" fill="#c7b58f" opacity="0.38"/><circle cx="531" cy="109" r="1" fill="#c7b58f" opacity="0.44"/><circle cx="763" cy="159" r="2" fill="#c7b58f" opacity="0.31"/><circle cx="707" cy="187" r="2" fill="#c7b58f" opacity="0.27"/><circle cx="788" cy="83" r="1" fill="#c7b58f" opacity="0.30"/>
<path d="M0 470 H1000 V560 H0Z" fill="#090a0b"/><path d="M0 420 Q180 350 330 430 T650 410 T1000 425 V520 H0Z" fill="#161c1b" stroke="#5b4935" stroke-width="2"/>
<circle cx="500" cy="250" r="92" fill="#0b0d0e" stroke="#b88b45" stroke-width="3"/><circle cx="500" cy="250" r="76" fill="none" stroke="#6d4e2d" stroke-width="1"/><text x="500" y="274" text-anchor="middle" font-size="72" fill="#b88b45" font-family="Georgia">⚔</text>
<path d="M90 492 H910" stroke="#6d4e2d" opacity=".8"/>
<text x="500" y="515" text-anchor="middle" fill="#d8c9ae" font-family="Georgia,serif" font-size="28" font-weight="700" letter-spacing="4">ANDUIN LOTHAR</text>
<text x="500" y="542" text-anchor="middle" fill="#b88b45" font-family="Arial,sans-serif" font-size="11" letter-spacing="3">CHAMPION DU ROYAUME</text>
</svg>