<svg xmlns="http://www.w3.org/2000/svg" viewBox="0 0 1200 675" role="img"><defs><radialGradient id="bg"><stop stop-color="#4e2478"/><stop offset="1" stop-color="#100c28"/></radialGradient><radialGradient id="planet"><stop stop-color="#ca78eb"/><stop offset=".62" stop-color="#4e2478"/><stop offset="1" stop-color="#100c28"/></radialGradient></defs><rect width="1200" height="675" fill="url(#bg)"/><circle cx="574" cy="80" r="3" fill="#d7edff" opacity="0.68"/><circle cx="784" cy="441" r="1" fill="#d7edff" opacity="0.71"/><circle cx="350" cy="447" r="1" fill="#d7edff" opacity="0.73"/><circle cx="925" cy="26" r="1" fill="#d7edff" opacity="0.52"/><circle cx="921" cy="36" r="1" fill="#d7edff" opacity="0.28"/><circle cx="373" cy="518" r="1" fill="#d7edff" opacity="0.56"/><circle cx="1025" cy="536" r="3" fill="#d7edff" opacity="0.31"/><circle cx="93" cy="412" r="1" fill="#d7edff" opacity="0.54"/><circle cx="774" cy="581" r="1" fill="#d7edff" opacity="0.32"/><circle cx="1090" cy="567" r="1" fill="#d7edff" opacity="0.39"/><circle cx="684" cy="213" r="3" fill="#d7edff" opacity="0.66"/><circle cx="898" cy="638" r="1" fill="#d7edff" opacity="0.35"/><circle cx="443" cy="567" r="3" fill="#d7edff" opacity="0.48"/><circle cx="376" cy="151" r="1" fill="#d7edff" opacity="0.29"/><circle cx="471" cy="339" r="1" fill="#d7edff" opacity="0.53"/><circle cx="904" cy="99" r="1" fill="#d7edff" opacity="0.62"/><circle cx="461" cy="178" r="1" fill="#d7edff" opacity="0.66"/><circle cx="952" cy="636" r="1" fill="#d7edff" opacity="0.66"/><circle cx="514" cy="564" r="3" fill="#d7edff" opacity="0.51"/><circle cx="437" cy="102" r="1" fill="#d7edff" opacity="0.27"/><circle cx="33" cy="405" r="2" fill="#d7edff" opacity="0.29"/><circle cx="113" cy="156" r="1" fill="#d7edff" opacity="0.30"/><circle cx="794" cy="537" r="1" fill="#d7edff" opacity="0.33"/><circle cx="963" cy="72" r="1" fill="#d7edff" opacity="0.52"/><circle cx="333" cy="182" r="1" fill="#d7edff" opacity="0.59"/><circle cx="530" cy="356" r="1" fill="#d7edff" opacity="0.43"/><circle cx="422" cy="165" r="1" fill="#d7edff" opacity="0.63"/><circle cx="560" cy="88" r="1" fill="#d7edff" opacity="0.69"/><circle cx="418" cy="259" r="2" fill="#d7edff" opacity="0.41"/><circle cx="776" cy="327" r="1" fill="#d7edff" opacity="0.33"/><circle cx="856" cy="289" r="1" fill="#d7edff" opacity="0.49"/><circle cx="123" cy="359" r="1" fill="#d7edff" opacity="0.61"/><circle cx="637" cy="292" r="2" fill="#d7edff" opacity="0.65"/><circle cx="1164" cy="512" r="1" fill="#d7edff" opacity="0.54"/><circle cx="1010" cy="299" r="1" fill="#d7edff" opacity="0.50"/><circle cx="263" cy="520" r="3" fill="#d7edff" opacity="0.35"/><circle cx="163" cy="290" r="1" fill="#d7edff" opacity="0.39"/><circle cx="564" cy="555" r="1" fill="#d7edff" opacity="0.66"/><circle cx="666" cy="546" r="1" fill="#d7edff" opacity="0.35"/><circle cx="727" cy="494" r="1" fill="#d7edff" opacity="0.37"/><circle cx="757" cy="167" r="1" fill="#d7edff" opacity="0.29"/><circle cx="299" cy="542" r="1" fill="#d7edff" opacity="0.38"/><circle cx="1110" cy="323" r="2" fill="#d7edff" opacity="0.75"/><circle cx="190" cy="491" r="1" fill="#d7edff" opacity="0.53"/><circle cx="739" cy="628" r="1" fill="#d7edff" opacity="0.38"/><circle cx="523" cy="240" r="1" fill="#d7edff" opacity="0.33"/><circle cx="992" cy="457" r="1" fill="#d7edff" opacity="0.33"/><circle cx="894" cy="362" r="1" fill="#d7edff" opacity="0.29"/><circle cx="868" cy="572" r="3" fill="#d7edff" opacity="0.48"/><circle cx="925" cy="108" r="3" fill="#d7edff" opacity="0.67"/><circle cx="1020" cy="421" r="1" fill="#d7edff" opacity="0.58"/><circle cx="250" cy="451" r="1" fill="#d7edff" opacity="0.40"/><circle cx="652" cy="541" r="1" fill="#d7edff" opacity="0.64"/><circle cx="1130" cy="361" r="3" fill="#d7edff" opacity="0.64"/><circle cx="893" cy="306" r="1" fill="#d7edff" opacity="0.57"/><circle cx="1050" cy="306" r="1" fill="#d7edff" opacity="0.61"/><circle cx="391" cy="521" r="3" fill="#d7edff" opacity="0.34"/><circle cx="430" cy="421" r="3" fill="#d7edff" opacity="0.53"/><circle cx="582" cy="505" r="1" fill="#d7edff" opacity="0.31"/><circle cx="704" cy="455" r="3" fill="#d7edff" opacity="0.26"/><circle cx="502" cy="430" r="2" fill="#d7edff" opacity="0.31"/><circle cx="929" cy="207" r="1" fill="#d7edff" opacity="0.60"/><circle cx="255" cy="337" r="3" fill="#d7edff" opacity="0.26"/><circle cx="207" cy="151" r="1" fill="#d7edff" opacity="0.38"/><circle cx="449" cy="576" r="1" fill="#d7edff" opacity="0.41"/><circle cx="448" cy="627" r="1" fill="#d7edff" opacity="0.68"/><circle cx="243" cy="605" r="1" fill="#d7edff" opacity="0.32"/><circle cx="862" cy="540" r="3" fill="#d7edff" opacity="0.62"/><circle cx="373" cy="177" r="3" fill="#d7edff" opacity="0.38"/><circle cx="649" cy="150" r="2" fill="#d7edff" opacity="0.64"/><circle cx="688" cy="467" r="1" fill="#d7edff" opacity="0.54"/><circle cx="656" cy="573" r="1" fill="#d7edff" opacity="0.28"/><circle cx="727" cy="593" r="1" fill="#d7edff" opacity="0.51"/><circle cx="623" cy="285" r="3" fill="#d7edff" opacity="0.42"/><circle cx="801" cy="37" r="1" fill="#d7edff" opacity="0.37"/><circle cx="669" cy="169" r="2" fill="#d7edff" opacity="0.44"/><circle cx="1080" cy="62" r="1" fill="#d7edff" opacity="0.33"/><circle cx="801" cy="472" r="3" fill="#d7edff" opacity="0.51"/><circle cx="1002" cy="205" r="1" fill="#d7edff" opacity="0.33"/><circle cx="658" cy="69" r="3" fill="#d7edff" opacity="0.48"/><circle cx="563" cy="224" r="3" fill="#d7edff" opacity="0.74"/><circle cx="792" cy="369" r="3" fill="#d7edff" opacity="0.65"/><circle cx="128" cy="471" r="1" fill="#d7edff" opacity="0.65"/><circle cx="133" cy="561" r="1" fill="#d7edff" opacity="0.57"/><circle cx="91" cy="40" r="2" fill="#d7edff" opacity="0.26"/><circle cx="266" cy="244" r="1" fill="#d7edff" opacity="0.66"/><circle cx="861" cy="497" r="1" fill="#d7edff" opacity="0.25"/><circle cx="509" cy="143" r="1" fill="#d7edff" opacity="0.59"/><circle cx="711" cy="598" r="1" fill="#d7edff" opacity="0.46"/><circle cx="1145" cy="357" r="1" fill="#d7edff" opacity="0.41"/><circle cx="1083" cy="284" r="1" fill="#d7edff" opacity="0.54"/><circle cx="355" cy="513" r="2" fill="#d7edff" opacity="0.48"/><circle cx="692" cy="234" r="1" fill="#d7edff" opacity="0.37"/><circle cx="462" cy="170" r="1" fill="#d7edff" opacity="0.61"/><circle cx="480" cy="137" r="3" fill="#d7edff" opacity="0.45"/><circle cx="600" cy="340" r="295" fill="none" stroke="#ca78eb" opacity=".14" stroke-width="3"/><path d="M390 680 Q350 340 520 200 Q610 70 700 205 Q880 365 810 680Z" fill="#4e2478" stroke="#ca78eb" stroke-width="5"/><ellipse cx="525" cy="342" rx="75" ry="40" fill="#ca78eb"/><ellipse cx="710" cy="342" rx="75" ry="40" fill="#ca78eb"/><path d="M600 395 L560 550 L650 550Z" fill="#100c28"/><path d="M310 660 Q180 320 400 190 M880 660 Q1030 300 800 180" fill="none" stroke="#ca78eb" stroke-width="19" opacity=".5"/><rect x="12" y="12" width="1176" height="651" rx="12" fill="none" stroke="#d5ae71" opacity=".6" stroke-width="3"/></svg>