<svg xmlns="http://www.w3.org/2000/svg" width="1000" height="560" viewBox="0 0 1000 560">
<defs><linearGradient id="bg" x2="1" y2="1"><stop stop-color="#11161a"/><stop offset=".55" stop-color="#0b0d0f"/><stop offset="1" stop-color="#090a0b"/></linearGradient><radialGradient id="glow"><stop stop-color="#b88b45" stop-opacity=".22"/><stop offset="1" stop-color="#b88b45" stop-opacity="0"/></radialGradient></defs>
<rect width="1000" height="560" fill="url(#bg)"/><circle cx="500" cy="230" r="250" fill="url(#glow)"/><circle cx="189" cy="147" r="1" fill="#c7b58f" opacity="0.44"/><circle cx="218" cy="210" r="1" fill="#c7b58f" opacity="0.37"/><circle cx="483" cy="159" r="1" fill="#c7b58f" opacity="0.31"/><circle cx="122" cy="218" r="1" fill="#c7b58f" opacity="0.23"/><circle cx="714" cy="195" r="1" fill="#c7b58f" opacity="0.25"/><circle cx="356" cy="82" r="1" fill="#c7b58f" opacity="0.19"/><circle cx="395" cy="124" r="2" fill="#c7b58f" opacity="0.27"/><circle cx="894" cy="83" r="1" fill="#c7b58f" opacity="0.44"/><circle cx="608" cy="100" r="1" fill="#c7b58f" opacity="0.20"/><circle cx="704" cy="193" r="1" fill="#c7b58f" opacity="0.20"/><circle cx="657" cy="131" r="1" fill="#c7b58f" opacity="0.38"/><circle cx="619" cy="71" r="1" fill="#c7b58f" opacity="0.20"/><circle cx="66" cy="200" r="1" fill="#c7b58f" opacity="0.44"/><circle cx="858" cy="193" r="1" fill="#c7b58f" opacity="0.19"/><circle cx="607" cy="43" r="2" fill="#c7b58f" opacity="0.22"/><circle cx="673" cy="159" r="2" fill="#c7b58f" opacity="0.24"/><circle cx="644" cy="116" r="2" fill="#c7b58f" opacity="0.35"/><circle cx="595" cy="122" r="1" fill="#c7b58f" opacity="0.27"/><circle cx="103" cy="55" r="1" fill="#c7b58f" opacity="0.35"/><circle cx="298" cy="91" r="2" fill="#c7b58f" opacity="0.36"/><circle cx="825" cy="161" r="1" fill="#c7b58f" opacity="0.42"/><circle cx="300" cy="67" r="1" fill="#c7b58f" opacity="0.35"/><circle cx="922" cy="113" r="1" fill="#c7b58f" opacity="0.17"/><circle cx="321" cy="210" r="2" fill="#c7b58f" opacity="0.19"/><circle cx="91" cy="182" r="1" fill="#c7b58f" opacity="0.42"/><circle cx="577" cy="189" r="1" fill="#c7b58f" opacity="0.35"/><circle cx="806" cy="216" r="2" fill="#c7b58f" opacity="0.26"/><circle cx="506" cy="33" r="2" fill="#c7b58f" opacity="0.18"/>
<path d="M0 470 H1000 V560 H0Z" fill="#090a0b"/><rect x="-29" y="350" width="88" height="120" fill="#171b1e" stroke="#6d4e2d" stroke-width="2"/><rect x="-19" y="370" width="7" height="4" fill="#b88b45" opacity=".55"/><rect x="-19" y="426" width="7" height="4" fill="#b88b45" opacity=".55"/><rect x="-19" y="454" width="7" height="4" fill="#b88b45" opacity=".55"/><rect x="97" y="342" width="98" height="128" fill="#171b1e" stroke="#6d4e2d" stroke-width="2"/><rect x="107" y="362" width="7" height="4" fill="#b88b45" opacity=".55"/><rect x="107" y="390" width="7" height="4" fill="#b88b45" opacity=".55"/><rect x="107" y="418" width="7" height="4" fill="#b88b45" opacity=".55"/><rect x="107" y="446" width="7" height="4" fill="#b88b45" opacity=".55"/><rect x="227" y="339" width="83" height="131" fill="#171b1e" stroke="#6d4e2d" stroke-width="2"/><rect x="237" y="387" width="7" height="4" fill="#b88b45" opacity=".55"/><rect x="237" y="415" width="7" height="4" fill="#b88b45" opacity=".55"/><rect x="237" y="443" width="7" height="4" fill="#b88b45" opacity=".55"/><rect x="354" y="340" width="70" height="130" fill="#171b1e" stroke="#6d4e2d" stroke-width="2"/><rect x="364" y="416" width="7" height="4" fill="#b88b45" opacity=".55"/><rect x="447" y="278" width="99" height="192" fill="#171b1e" stroke="#6d4e2d" stroke-width="2"/><rect x="457" y="326" width="7" height="4" fill="#b88b45" opacity=".55"/><rect x="457" y="354" width="7" height="4" fill="#b88b45" opacity=".55"/><rect x="457" y="382" width="7" height="4" fill="#b88b45" opacity=".55"/><rect x="457" y="410" width="7" height="4" fill="#b88b45" opacity=".55"/><rect x="457" y="438" width="7" height="4" fill="#b88b45" opacity=".55"/><rect x="592" y="274" width="71" height="196" fill="#171b1e" stroke="#6d4e2d" stroke-width="2"/><rect x="602" y="350" width="7" height="4" fill="#b88b45" opacity=".55"/><rect x="602" y="378" width="7" height="4" fill="#b88b45" opacity=".55"/><rect x="602" y="406" width="7" height="4" fill="#b88b45" opacity=".55"/><rect x="602" y="434" width="7" height="4" fill="#b88b45" opacity=".55"/><rect x="697" y="356" width="71" height="114" fill="#171b1e" stroke="#6d4e2d" stroke-width="2"/><rect x="707" y="404" width="7" height="4" fill="#b88b45" opacity=".55"/><rect x="707" y="432" width="7" height="4" fill="#b88b45" opacity=".55"/><rect x="813" y="311" width="55" height="159" fill="#171b1e" stroke="#6d4e2d" stroke-width="2"/><rect x="823" y="331" width="7" height="4" fill="#b88b45" opacity=".55"/><rect x="823" y="415" width="7" height="4" fill="#b88b45" opacity=".55"/><rect x="937" y="360" width="55" height="110" fill="#171b1e" stroke="#6d4e2d" stroke-width="2"/><rect x="947" y="408" width="7" height="4" fill="#b88b45" opacity=".55"/><rect x="947" y="436" width="7" height="4" fill="#b88b45" opacity=".55"/>
<circle cx="500" cy="250" r="88" fill="#0b0d0e" stroke="#b88b45" stroke-width="3"/><path d="M430 285 L570 285 M450 270 L450 220 M500 270 L500 195 M550 270 L550 220" stroke="#b88b45" stroke-width="10" fill="none"/><path d="M425 285 Q500 320 575 285" stroke="#6d4e2d" stroke-width="5" fill="none"/><text x="500" y="350" text-anchor="middle" font-size="42" fill="#b88b45" font-family="Georgia">♜</text>
<path d="M90 492 H910" stroke="#6d4e2d" opacity=".8"/>
<text x="500" y="515" text-anchor="middle" fill="#d8c9ae" font-family="Georgia,serif" font-size="28" font-weight="700" letter-spacing="4">STORMWIND</text>
<text x="500" y="542" text-anchor="middle" fill="#b88b45" font-family="Arial,sans-serif" font-size="11" letter-spacing="3">CAPITALE DU ROYAUME</text>
</svg>